<?xml version="1.0" encoding="UTF-8" standalone="no"?>
<!-- Created with Fritzing (http://www.fritzing.org/) -->

<svg
   xmlns:dc="http://purl.org/dc/elements/1.1/"
   xmlns:cc="http://creativecommons.org/ns#"
   xmlns:rdf="http://www.w3.org/1999/02/22-rdf-syntax-ns#"
   xmlns:svg="http://www.w3.org/2000/svg"
   xmlns="http://www.w3.org/2000/svg"
   xmlns:sodipodi="http://sodipodi.sourceforge.net/DTD/sodipodi-0.dtd"
   xmlns:inkscape="http://www.inkscape.org/namespaces/inkscape"
   width="126"
   x="0in"
   version="1.2"
   y="0in"
   height="29.700001"
   viewBox="0 0 100.8 23.759992"
   id="svg2"
   inkscape:version="0.48.3.1 r9886"
   sodipodi:docname="alamatic_ic.svg">
  <metadata
     id="metadata184">
    <rdf:RDF>
      <cc:Work
         rdf:about="">
        <dc:format>image/svg+xml</dc:format>
        <dc:type
           rdf:resource="http://purl.org/dc/dcmitype/StillImage" />
        <dc:title></dc:title>
      </cc:Work>
    </rdf:RDF>
  </metadata>
  <defs
     id="defs182" />
  <sodipodi:namedview
     pagecolor="#ffffff"
     bordercolor="#666666"
     borderopacity="1"
     objecttolerance="10"
     gridtolerance="10"
     guidetolerance="10"
     inkscape:pageopacity="0"
     inkscape:pageshadow="2"
     inkscape:window-width="1680"
     inkscape:window-height="974"
     id="namedview180"
     showgrid="false"
     fit-margin-top="0"
     fit-margin-left="0"
     fit-margin-right="0"
     fit-margin-bottom="0"
     inkscape:zoom="5.1428571"
     inkscape:cx="52.681674"
     inkscape:cy="47.180142"
     inkscape:window-x="0"
     inkscape:window-y="24"
     inkscape:window-maximized="1"
     inkscape:current-layer="svg2" />
  <rect
     width="100.8"
     x="0"
     y="2.1599925"
     height="19.440001"
     id="middle"
     style="fill:#303030" />
  <rect
     width="100.8"
     x="0"
     y="2.1599925"
     height="1.7711999"
     id="top"
     style="fill:#3d3d3d" />
  <rect
     width="100.8"
     x="0"
     y="19.828793"
     height="1.7711999"
     id="bottom"
     style="fill:#000000" />
  <polygon
     points="100.8,21.6 100.8,2.16 100.26,3.9312 100.26,19.8288 "
     id="right"
     style="fill:#141414"
     transform="translate(0,-7.5683594e-6)" />
  <polygon
     points="0,21.6 0,2.16 0.54,3.9312 0.54,19.8288 "
     id="left"
     style="fill:#1f1f1f"
     transform="translate(0,-7.5683594e-6)" />
  <polygon
     points="0.4032,9.7776 0.4032,11.88 3.6,11.88 3.6,8.28 0.54,8.2512 "
     id="left-upper-rect"
     style="fill:#1c1c1c"
     transform="translate(0,-7.5683594e-6)" />
  <polygon
     points="3.6,11.88 0.4032,11.88 0.4032,13.9824 0.54,15.516 3.6,15.516 "
     id="left-lower-rect"
     style="fill:#383838"
     transform="translate(0,-7.5683594e-6)" />
  <path
     id="slot"
     d="m 0.4032,9.7775924 0,4.1975996 c 1.0584,-0.1224 1.8864,-1.008 1.8864,-2.1024 0,-1.0944 -0.8208,-1.9727996 -1.8864,-2.0951996 z"
     inkscape:connector-curvature="0"
     style="fill:#262626" />
  <path
     id="cover"
     d="m 0.54,3.9311924 0,4.3128 c 1.7136,0.324 3.0168,1.8215996 3.0168,3.6287996 0,1.8072 -1.296,3.312 -3.0168,3.636 l 0,0.0072 3.6,0 0,-11.5847996 -3.6,0 z"
     inkscape:connector-curvature="0"
     style="fill:#303030" />
  <circle
     cx="4.6799998"
     cy="16.898399"
     r="1.4832"
     id="circle65"
     sodipodi:cx="4.6799998"
     sodipodi:cy="16.898399"
     sodipodi:rx="1.4832"
     sodipodi:ry="1.4832"
     style="fill:#212121"
     d="m 6.1631998,16.898399 c 0,0.819149 -0.6640513,1.4832 -1.4832,1.4832 -0.8191487,0 -1.4831999,-0.664051 -1.4831999,-1.4832 0,-0.819148 0.6640512,-1.4832 1.4831999,-1.4832 0.8191487,0 1.4832,0.664052 1.4832,1.4832 z"
     transform="translate(0,-7.5683594e-6)" />
  <g
     style="font-size:5.76000023px;font-style:normal;font-variant:normal;font-weight:bold;font-stretch:normal;text-anchor:start;fill:#e6e6e6;stroke:none;font-family:ocra10;-inkscape-font-specification:ocra10 Bold"
     id="label"
     transform="matrix(2.3962097,0,0,2.3962097,1.3344771,-11.48715)">
    <path
       d="m 5.5670399,11.879992 c -0.076801,0 -0.1420808,-0.02496 -0.19584,-0.07488 -0.049921,-0.05376 -0.074881,-0.11712 -0.07488,-0.19008 -7e-7,-0.04224 0.023039,-0.14208 0.06912,-0.29952 0.046079,-0.16128 0.1497591,-0.510719 0.31104,-1.048321 0.1612788,-0.5414374 0.3321587,-1.1366368 0.51264,-1.7855996 0.061438,-0.2073564 0.1094384,-0.3743962 0.144,-0.50112 0.038398,-0.130556 0.078718,-0.2227159 0.12096,-0.27648 0.046078,-0.057596 0.1094381,-0.086396 0.19008,-0.0864 0.061438,4.2e-6 0.1151979,0.015364 0.16128,0.04608 0.046078,0.030724 0.078718,0.067204 0.09792,0.10944 0.019198,0.042244 0.034558,0.086404 0.04608,0.13248 0.015358,0.046084 0.024958,0.084484 0.0288,0.1152 0.00768,0.026884 0.1823975,0.6182432 0.52416,1.77408 0.3417569,1.1558406 0.5126367,1.7529606 0.5126401,1.7913606 l 0,0.01152 c -3.4e-6,0.0768 -0.026883,0.144 -0.08064,0.2016 -0.053763,0.05376 -0.1190432,0.08064 -0.1958401,0.08064 -0.053763,0 -0.097923,-0.0077 -0.13248,-0.02304 -0.030723,-0.01536 -0.059523,-0.04608 -0.0864,-0.09216 -0.026883,-0.04992 -0.048003,-0.09408 -0.06336,-0.13248 -0.011523,-0.0384 -0.032643,-0.10944 -0.06336,-0.21312 -0.026883,-0.10368 -0.051843,-0.192 -0.07488,-0.26496 -0.00384,-0.01152 -0.0096,-0.03072 -0.01728,-0.0576 -0.00384,-0.03072 -0.0096,-0.0576 -0.01728,-0.08064 -0.00768,-0.02304 -0.017283,-0.04032 -0.0288,-0.05184 -0.00384,-0.0077 -0.024963,-0.01152 -0.06336,-0.01152 l -1.07712,0 c -0.038401,1e-6 -0.061441,0.0038 -0.06912,0.01152 -0.011521,0.0192 -0.028801,0.07872 -0.05184,0.178561 l -0.12096,0.39744 c -0.00384,0.01536 -0.0096,0.03456 -0.01728,0.0576 -0.00384,0.02304 -0.0096,0.048 -0.01728,0.07488 -0.00768,0.02304 -0.019201,0.048 -0.03456,0.07488 -0.015361,0.02304 -0.034561,0.04608 -0.0576,0.06912 -0.019201,0.0192 -0.044161,0.03456 -0.07488,0.04608 -0.030721,0.01152 -0.065281,0.01728 -0.10368,0.01728 m 1.08864,-3.0009606 -0.44928,1.5206396 0.8928,0 c -0.057602,-0.188158 -0.1536022,-0.5183975 -0.288,-0.9907196 -0.011522,-0.034558 -0.030722,-0.088317 -0.0576,-0.16128 -0.023042,-0.076797 -0.044162,-0.1439972 -0.06336,-0.2016 -0.015362,-0.057597 -0.026882,-0.113277 -0.03456,-0.16704"
       style="font-size:5.76000023px;font-style:normal;font-variant:normal;font-weight:bold;font-stretch:normal;text-anchor:start;fill:#e6e6e6;stroke:none;font-family:ocra10;-inkscape-font-specification:ocra10 Bold"
       id="path3353"
       inkscape:connector-curvature="0" />
    <path
       d="m 9.5100301,7.6175914 c 0.069119,4.2e-6 0.132479,0.024964 0.19008,0.07488 0.061439,0.046084 0.092159,0.124804 0.09216,0.23616 l 0,0.10944 0,3.2889606 1.2787199,0 c 0.04608,0 0.117118,0 0.21312,0 0.096,-0.0038 0.167037,-0.0058 0.21312,-0.0058 l 0.21312,0.0058 c 0.07296,0.0038 0.132477,0.03456 0.17856,0.09216 0.04992,0.05376 0.07488,0.1152 0.07488,0.18432 -3e-6,0.03456 -0.0096,0.07488 -0.0288,0.12096 -0.03072,0.06912 -0.07488,0.11328 -0.13248,0.13248 -0.0576,0.01536 -0.136323,0.02304 -0.23616,0.02304 l -2.3270399,0 0,-3.7785606 c -6e-7,-0.015356 -0.00192,-0.040316 -0.00576,-0.07488 -6e-7,-0.038396 -6e-7,-0.067196 0,-0.0864 -6e-7,-0.069116 0.0096,-0.126716 0.0288,-0.1728 0.023039,-0.046076 0.051839,-0.078716 0.0864,-0.09792 0.034559,-0.019196 0.063359,-0.032636 0.0864,-0.04032 0.026879,-0.00768 0.051839,-0.011516 0.07488,-0.01152"
       style="font-size:5.76000023px;font-style:normal;font-variant:normal;font-weight:bold;font-stretch:normal;text-anchor:start;fill:#e6e6e6;stroke:none;font-family:ocra10;-inkscape-font-specification:ocra10 Bold"
       id="path3355"
       inkscape:connector-curvature="0" />
    <path
       d="m 13.46454,11.879992 c -0.0768,0 -0.14208,-0.02496 -0.19584,-0.07488 -0.04992,-0.05376 -0.07488,-0.11712 -0.07488,-0.19008 0,-0.04224 0.02304,-0.14208 0.06912,-0.29952 0.04608,-0.16128 0.14976,-0.510719 0.31104,-1.048321 0.161279,-0.5414374 0.332159,-1.1366368 0.51264,-1.7855996 0.06144,-0.2073564 0.109439,-0.3743962 0.144,-0.50112 0.0384,-0.130556 0.07872,-0.2227159 0.12096,-0.27648 0.04608,-0.057596 0.109439,-0.086396 0.19008,-0.0864 0.06144,4.2e-6 0.115198,0.015364 0.16128,0.04608 0.04608,0.030724 0.07872,0.067204 0.09792,0.10944 0.0192,0.042244 0.03456,0.086404 0.04608,0.13248 0.01536,0.046084 0.02496,0.084484 0.0288,0.1152 0.0077,0.026884 0.182398,0.6182432 0.52416,1.77408 0.341757,1.1558406 0.512637,1.7529606 0.51264,1.7913606 l 0,0.01152 c -3e-6,0.0768 -0.02688,0.144 -0.08064,0.2016 -0.05376,0.05376 -0.119043,0.08064 -0.19584,0.08064 -0.05376,0 -0.09792,-0.0077 -0.13248,-0.02304 -0.03072,-0.01536 -0.05952,-0.04608 -0.0864,-0.09216 -0.02688,-0.04992 -0.048,-0.09408 -0.06336,-0.13248 -0.01152,-0.0384 -0.03264,-0.10944 -0.06336,-0.21312 -0.02688,-0.10368 -0.05184,-0.192 -0.07488,-0.26496 -0.0038,-0.01152 -0.0096,-0.03072 -0.01728,-0.0576 -0.0038,-0.03072 -0.0096,-0.0576 -0.01728,-0.08064 -0.0077,-0.02304 -0.01728,-0.04032 -0.0288,-0.05184 -0.0038,-0.0077 -0.02496,-0.01152 -0.06336,-0.01152 l -1.07712,0 c -0.0384,1e-6 -0.06144,0.0038 -0.06912,0.01152 -0.01152,0.0192 -0.0288,0.07872 -0.05184,0.178561 l -0.12096,0.39744 c -0.0038,0.01536 -0.0096,0.03456 -0.01728,0.0576 -0.0038,0.02304 -0.0096,0.048 -0.01728,0.07488 -0.0077,0.02304 -0.0192,0.048 -0.03456,0.07488 -0.01536,0.02304 -0.03456,0.04608 -0.0576,0.06912 -0.0192,0.0192 -0.04416,0.03456 -0.07488,0.04608 -0.03072,0.01152 -0.06528,0.01728 -0.10368,0.01728 m 1.08864,-3.0009606 -0.44928,1.5206396 0.8928,0 c -0.0576,-0.188158 -0.153602,-0.5183975 -0.288,-0.9907196 -0.01152,-0.034558 -0.03072,-0.088317 -0.0576,-0.16128 -0.02304,-0.076797 -0.04416,-0.1439972 -0.06336,-0.2016 -0.01536,-0.057597 -0.02688,-0.113277 -0.03456,-0.16704"
       style="font-size:5.76000023px;font-style:normal;font-variant:normal;font-weight:bold;font-stretch:normal;text-anchor:start;fill:#e6e6e6;stroke:none;font-family:ocra10;-inkscape-font-specification:ocra10 Bold"
       id="path3357"
       inkscape:connector-curvature="0" />
    <path
       d="m 17.41329,11.879992 c -0.07296,0 -0.13824,-0.02496 -0.19584,-0.07488 -0.0576,-0.04992 -0.0864,-0.1344 -0.0864,-0.25344 0,-0.0192 0,-0.04608 0,-0.08064 0.0038,-0.0384 0.0058,-0.06528 0.0058,-0.08064 l 0,-3.7728006 0.49536,0 c 0.0077,4.2e-6 0.02496,4.2e-6 0.05184,0 0.03072,-0.00384 0.05376,-0.00576 0.06912,-0.00576 0.04224,4.2e-6 0.07104,0.00768 0.0864,0.02304 0.0192,0.015364 0.03648,0.038404 0.05184,0.06912 0.01152,0.019204 0.03264,0.049924 0.06336,0.09216 0.03072,0.042244 0.05184,0.072964 0.06336,0.09216 l 0.48384,0.68544 0.61632,-0.88704 0.0576,-0.06336 0.20736,-0.00576 0.47808,0 0,3.7728006 c -3e-6,0.0192 -3e-6,0.04608 0,0.08064 0.0038,0.03456 0.0058,0.05952 0.0058,0.07488 -3e-6,0.09216 -0.02112,0.16512 -0.06336,0.21888 -0.0384,0.05376 -0.0768,0.0864 -0.1152,0.09792 -0.03456,0.01152 -0.06912,0.01728 -0.10368,0.01728 -0.0576,0 -0.113282,-0.01728 -0.16704,-0.05184 -0.04992,-0.0384 -0.08256,-0.0864 -0.09792,-0.144 -0.0077,-0.02688 -0.01152,-0.096 -0.01152,-0.20736 l 0,-3.0931206 -0.0058,0 c -0.01152,0.034563 -0.08832,0.1459233 -0.2304,0.33408 -0.142082,0.188163 -0.236162,0.3244829 -0.28224,0.40896 -0.01152,0.019203 -0.01728,0.078723 -0.01728,0.17856 -2e-6,0.076802 -0.0288,0.1382425 -0.0864,0.18432 -0.05376,0.046082 -0.111362,0.069122 -0.1728,0.06912 -0.07296,2.4e-6 -0.140161,-0.021118 -0.2016,-0.06336 -0.0576,-0.046078 -0.0864,-0.1247975 -0.0864,-0.23616 -1e-6,-0.072957 -0.0038,-0.1151972 -0.01152,-0.12672 -0.04992,-0.088317 -0.145921,-0.224637 -0.288,-0.40896 -0.142081,-0.1881567 -0.218881,-0.3014365 -0.2304,-0.33984 l -0.0058,0 0,3.0931206 0,0.10368 c -1e-6,0.08832 -0.02688,0.16128 -0.08064,0.21888 -0.05376,0.05376 -0.119041,0.08064 -0.19584,0.08064"
       style="font-size:5.76000023px;font-style:normal;font-variant:normal;font-weight:bold;font-stretch:normal;text-anchor:start;fill:#e6e6e6;stroke:none;font-family:ocra10;-inkscape-font-specification:ocra10 Bold"
       id="path3359"
       inkscape:connector-curvature="0" />
    <path
       d="m 21.362041,11.879992 c -0.0768,0 -0.142081,-0.02496 -0.19584,-0.07488 -0.04992,-0.05376 -0.07488,-0.11712 -0.07488,-0.19008 -1e-6,-0.04224 0.02304,-0.14208 0.06912,-0.29952 0.04608,-0.16128 0.149759,-0.510719 0.31104,-1.048321 0.161279,-0.5414374 0.332159,-1.1366368 0.51264,-1.7855996 0.06144,-0.2073564 0.109438,-0.3743962 0.144,-0.50112 0.0384,-0.130556 0.07872,-0.2227159 0.12096,-0.27648 0.04608,-0.057596 0.109438,-0.086396 0.19008,-0.0864 0.06144,4.2e-6 0.115198,0.015364 0.16128,0.04608 0.04608,0.030724 0.07872,0.067204 0.09792,0.10944 0.0192,0.042244 0.03456,0.086404 0.04608,0.13248 0.01536,0.046084 0.02496,0.084484 0.0288,0.1152 0.0077,0.026884 0.182397,0.6182432 0.52416,1.77408 0.341757,1.1558406 0.512637,1.7529606 0.51264,1.7913606 l 0,0.01152 c -3e-6,0.0768 -0.02688,0.144 -0.08064,0.2016 -0.05376,0.05376 -0.119043,0.08064 -0.19584,0.08064 -0.05376,0 -0.09792,-0.0077 -0.13248,-0.02304 -0.03072,-0.01536 -0.05952,-0.04608 -0.0864,-0.09216 -0.02688,-0.04992 -0.048,-0.09408 -0.06336,-0.13248 -0.01152,-0.0384 -0.03264,-0.10944 -0.06336,-0.21312 -0.02688,-0.10368 -0.05184,-0.192 -0.07488,-0.26496 -0.0038,-0.01152 -0.0096,-0.03072 -0.01728,-0.0576 -0.0038,-0.03072 -0.0096,-0.0576 -0.01728,-0.08064 -0.0077,-0.02304 -0.01728,-0.04032 -0.0288,-0.05184 -0.0038,-0.0077 -0.02496,-0.01152 -0.06336,-0.01152 l -1.07712,0 c -0.0384,1e-6 -0.06144,0.0038 -0.06912,0.01152 -0.01152,0.0192 -0.0288,0.07872 -0.05184,0.178561 l -0.12096,0.39744 c -0.0038,0.01536 -0.0096,0.03456 -0.01728,0.0576 -0.0038,0.02304 -0.0096,0.048 -0.01728,0.07488 -0.0077,0.02304 -0.0192,0.048 -0.03456,0.07488 -0.01536,0.02304 -0.03456,0.04608 -0.0576,0.06912 -0.0192,0.0192 -0.04416,0.03456 -0.07488,0.04608 -0.03072,0.01152 -0.06528,0.01728 -0.10368,0.01728 m 1.08864,-3.0009606 -0.44928,1.5206396 0.8928,0 c -0.0576,-0.188158 -0.153602,-0.5183975 -0.288,-0.9907196 -0.01152,-0.034558 -0.03072,-0.088317 -0.0576,-0.16128 -0.02304,-0.076797 -0.04416,-0.1439972 -0.06336,-0.2016 -0.01536,-0.057597 -0.02688,-0.113277 -0.03456,-0.16704"
       style="font-size:5.76000023px;font-style:normal;font-variant:normal;font-weight:bold;font-stretch:normal;text-anchor:start;fill:#e6e6e6;stroke:none;font-family:ocra10;-inkscape-font-specification:ocra10 Bold"
       id="path3361"
       inkscape:connector-curvature="0" />
    <path
       d="m 26.399431,11.879992 c -0.06912,0 -0.134401,-0.02496 -0.19584,-0.07488 -0.0576,-0.04992 -0.0864,-0.13056 -0.0864,-0.24192 -10e-7,-0.01152 -10e-7,-0.03072 0,-0.0576 0.0038,-0.02688 0.0058,-0.04608 0.0058,-0.0576 l 0,-3.2774406 -0.53568,0 c -1e-6,0.1804835 -0.01536,0.2937634 -0.04608,0.33984 -0.05376,0.080643 -0.130561,0.1209633 -0.2304,0.12096 -0.10752,3.3e-6 -0.18816,-0.046077 -0.24192,-0.13824 -0.02304,-0.038397 -0.03456,-0.1363165 -0.03456,-0.29376 l 0,-0.58176 2.72448,0 0,0.576 c -3e-6,0.015364 -3e-6,0.036484 0,0.06336 0.0038,0.026884 0.0058,0.048004 0.0058,0.06336 -3e-6,0.1190434 -0.03072,0.2016034 -0.09216,0.24768 -0.06144,0.042243 -0.124803,0.063363 -0.19008,0.06336 -0.06912,3.3e-6 -0.134402,-0.024957 -0.19584,-0.07488 -0.0576,-0.049917 -0.0864,-0.1305566 -0.0864,-0.24192 -2e-6,-0.015356 -2e-6,-0.038396 0,-0.06912 0.0038,-0.034556 0.0058,-0.059516 0.0058,-0.07488 l -0.52992,0 0,3.2774406 c -2e-6,0.01152 -2e-6,0.03264 0,0.06336 0.0038,0.02688 0.0058,0.048 0.0058,0.06336 -2e-6,0.10752 -0.03072,0.18624 -0.09216,0.23616 -0.06144,0.04608 -0.124802,0.06912 -0.19008,0.06912"
       style="font-size:5.76000023px;font-style:normal;font-variant:normal;font-weight:bold;font-stretch:normal;text-anchor:start;fill:#e6e6e6;stroke:none;font-family:ocra10;-inkscape-font-specification:ocra10 Bold"
       id="path3363"
       inkscape:connector-curvature="0" />
    <path
       d="m 31.373461,11.321272 c 0.08832,0 0.159357,0.0192 0.21312,0.0576 0.05376,0.03456 0.0864,0.07104 0.09792,0.10944 0.01536,0.03456 0.02304,0.07104 0.02304,0.10944 -3e-6,0.12672 -0.05568,0.21312 -0.16704,0.2592 -0.03456,0.01536 -0.120963,0.02304 -0.2592,0.02304 l -0.45504,0 c -0.115202,0 -0.289922,0.0019 -0.52416,0.0058 -0.234242,0.0038 -0.410882,0.0058 -0.52992,0.0058 -0.122881,0 -0.299521,-0.0038 -0.52992,-0.01152 -0.0768,-0.0038 -0.140161,-0.03264 -0.19008,-0.0864 -0.04608,-0.0576 -0.06912,-0.12288 -0.06912,-0.19584 -1e-6,-0.10368 0.04608,-0.1824 0.13824,-0.23616 0.04224,-0.02304 0.149759,-0.03456 0.32256,-0.03456 l 0.62784,0 0,-3.1564806 -0.62784,0 c -0.168961,3.7e-6 -0.274561,-0.011516 -0.3168,-0.03456 -0.09216,-0.049916 -0.138241,-0.1286361 -0.13824,-0.23616 -1e-6,-0.069116 0.02304,-0.1324759 0.06912,-0.19008 0.04608,-0.057596 0.105599,-0.088316 0.17856,-0.09216 0.0384,-0.00384 0.09792,-0.00576 0.17856,-0.00576 l 0.35712,0.00576 1.51488,0 c 0.138237,4.2e-6 0.224637,0.00768 0.2592,0.02304 0.107517,0.046084 0.161277,0.1305641 0.16128,0.25344 -3e-6,0.072964 -0.02496,0.1382438 -0.07488,0.19584 -0.04608,0.057604 -0.132483,0.086404 -0.2592,0.0864 -0.01536,3.7e-6 -0.0384,3.7e-6 -0.06912,0 -0.03072,-0.00384 -0.05376,-0.00576 -0.06912,-0.00576 l -0.61056,0 0,3.1564806 0.61056,0 c 0.01536,0 0.0384,0 0.06912,0 0.03072,-0.0038 0.05376,-0.0058 0.06912,-0.0058"
       style="font-size:5.76000023px;font-style:normal;font-variant:normal;font-weight:bold;font-stretch:normal;text-anchor:start;fill:#e6e6e6;stroke:none;font-family:ocra10;-inkscape-font-specification:ocra10 Bold"
       id="path3365"
       inkscape:connector-curvature="0" />
    <path
       d="m 35.316452,11.321272 c 0.130557,0 0.218877,0.0288 0.26496,0.0864 0.04992,0.0576 0.07488,0.12096 0.07488,0.19008 -3e-6,0.12672 -0.05568,0.21312 -0.16704,0.2592 -0.0384,0.01536 -0.113283,0.02304 -0.22464,0.02304 l -0.35712,0 c -0.04224,0 -0.107522,0.0019 -0.19584,0.0058 -0.08832,0.0038 -0.155522,0.0058 -0.2016,0.0058 -0.257282,0 -0.453121,-0.04416 -0.58752,-0.13248 -0.134401,-0.08832 -0.249601,-0.23232 -0.3456,-0.432 -0.096,-0.19968 -0.228481,-0.462719 -0.39744,-0.789121 -0.16512,-0.311038 -0.24768,-0.5683176 -0.24768,-0.7718396 0,-0.1228777 0.0192,-0.2495976 0.0576,-0.38016 0.04224,-0.1305573 0.09216,-0.2476772 0.14976,-0.35136 0.0576,-0.107517 0.117119,-0.2246369 0.17856,-0.35136 l 0.23616,-0.47232 c 0.04608,-0.092156 0.08064,-0.1574362 0.10368,-0.19584 0.02688,-0.038396 0.06912,-0.092156 0.12672,-0.16128 0.0576,-0.069116 0.126719,-0.1209559 0.20736,-0.15552 0.08448,-0.038396 0.184319,-0.065276 0.29952,-0.08064 l 0.2592,0 0.50112,0 c 0.02304,4.2e-6 0.06144,4.2e-6 0.1152,0 0.05376,-0.00384 0.09408,-0.00576 0.12096,-0.00576 0.245757,4.2e-6 0.368637,0.094084 0.36864,0.28224 -3e-6,0.080644 -0.03072,0.1497638 -0.09216,0.20736 -0.0192,0.019204 -0.04032,0.034564 -0.06336,0.04608 -0.02304,0.00768 -0.04992,0.013444 -0.08064,0.01728 -0.03072,0.00384 -0.05568,0.00768 -0.07488,0.01152 -0.0192,3.7e-6 -0.048,3.7e-6 -0.0864,0 -0.0384,-0.00384 -0.06336,-0.00576 -0.07488,-0.00576 l -0.58752,0 c -0.01536,3.7e-6 -0.04224,3.7e-6 -0.08064,0 -0.0384,-0.00384 -0.0672,-0.00576 -0.0864,-0.00576 -0.05376,3.7e-6 -0.09984,0.00576 -0.13824,0.01728 -0.03456,0.00768 -0.06528,0.021124 -0.09216,0.04032 -0.02304,0.019204 -0.04416,0.044164 -0.06336,0.07488 -0.0192,0.026884 -0.0384,0.059524 -0.0576,0.09792 -0.01536,0.038403 -0.03456,0.080643 -0.0576,0.12672 l -0.33408,0.66816 c -0.04224,0.061443 -0.0864,0.1459226 -0.13248,0.25344 -0.04608,0.1036824 -0.06912,0.2016023 -0.06912,0.29376 -10e-7,0.1267221 0.06528,0.3129616 0.19584,0.5587196 l 0.30528,0.61056 c 0.04224,0.08064 0.07488,0.153601 0.09792,0.218881 0.02688,0.06144 0.0672,0.11136 0.12096,0.14976 0.0576,0.0384 0.130558,0.0576 0.21888,0.0576 0.0192,0 0.048,0 0.0864,0 0.0384,-0.0038 0.06528,-0.0058 0.08064,-0.0058 l 0.58176,0 c 0.01536,0 0.0384,0 0.06912,0 0.03072,-0.0038 0.05568,-0.0058 0.07488,-0.0058"
       style="font-size:5.76000023px;font-style:normal;font-variant:normal;font-weight:bold;font-stretch:normal;text-anchor:start;fill:#e6e6e6;stroke:none;font-family:ocra10;-inkscape-font-specification:ocra10 Bold"
       id="path3367"
       inkscape:connector-curvature="0" />
  </g>
  <rect
     width="2.1600001"
     x="2.52"
     y="20.635193"
     height="3.1248"
     id="connector0pin"
     style="fill:#8c8c8c" />
  <g
     width="2.16"
     x="2.52"
     y="21.6"
     height="2.16"
     id="connector0terminal"
     style="fill:#8c8c8c"
     transform="translate(0,-7.5683594e-6)" />
  <polygon
     points="4.68,22.0752 6.12,21.4128 6.12,20.6352 2.52,20.6352 2.52,22.0752 "
     id="polygon70"
     style="fill:#8c8c8c"
     transform="translate(0,-7.5683594e-6)" />
  <rect
     width="2.1600001"
     x="2.52"
     height="3.1248"
     id="connector27pin"
     y="-7.5683593e-06"
     style="fill:#8c8c8c" />
  <g
     width="2.16"
     x="2.52"
     height="2.16"
     id="connector27terminal"
     style="fill:#8c8c8c"
     transform="translate(0,-7.5683594e-6)" />
  <polygon
     points="4.68,1.6848 2.52,1.6848 2.52,3.1248 6.12,3.1248 6.12,2.3472 "
     id="polygon74"
     style="fill:#8c8c8c"
     transform="translate(0,-7.5683594e-6)" />
  <rect
     width="2.1600001"
     x="96.120003"
     y="20.635193"
     height="3.1248"
     id="connector13pin"
     style="fill:#8c8c8c" />
  <g
     width="2.16"
     x="96.12"
     y="21.6"
     height="2.16"
     id="connector13terminal"
     style="fill:#8c8c8c"
     transform="translate(0,-7.5683594e-6)" />
  <polygon
     points="96.12,22.0752 98.28,22.0752 98.28,20.6352 94.68,20.6352 94.68,21.4128 "
     id="polygon78"
     style="fill:#8c8c8c"
     transform="translate(0,-7.5683594e-6)" />
  <rect
     width="2.1600001"
     x="96.120003"
     y="-7.5683593e-06"
     height="3.1248"
     id="connector14pin"
     style="fill:#8c8c8c" />
  <g
     width="2.16"
     x="96.12"
     y="0"
     height="2.16"
     id="connector14terminal"
     style="fill:#8c8c8c"
     transform="translate(0,-7.5683594e-6)" />
  <polygon
     points="96.12,1.6848 94.68,2.3472 94.68,3.1248 98.28,3.1248 98.28,1.6848 "
     id="polygon82"
     style="fill:#8c8c8c"
     transform="translate(0,-7.5683594e-6)" />
  <rect
     width="2.1600001"
     x="9.7200003"
     y="-7.5683593e-06"
     height="3.1248"
     id="connector26pin"
     style="fill:#8c8c8c" />
  <g
     width="2.16"
     x="9.72"
     height="2.16"
     id="connector26terminal"
     style="fill:#8c8c8c"
     transform="translate(0,-7.5683594e-6)" />
  <polygon
     points="13.32,2.3472 11.88,1.6848 9.72,1.6848 8.28,2.3472 8.28,3.1248 13.32,3.1248 "
     id="polygon86"
     style="fill:#8c8c8c"
     transform="translate(0,-7.5683594e-6)" />
  <rect
     width="2.1600001"
     x="16.92"
     y="-7.5683593e-06"
     height="3.1248"
     id="connector25pin"
     style="fill:#8c8c8c" />
  <g
     width="2.16"
     x="16.92"
     height="2.16"
     id="connector25terminal"
     style="fill:#8c8c8c"
     transform="translate(0,-7.5683594e-6)" />
  <polygon
     points="20.52,2.3472 19.08,1.6848 16.92,1.6848 15.48,2.3472 15.48,3.1248 20.52,3.1248 "
     id="polygon90"
     style="fill:#8c8c8c"
     transform="translate(0,-7.5683594e-6)" />
  <rect
     width="2.1600001"
     x="24.120001"
     y="-7.5683593e-06"
     height="3.1248"
     id="connector24pin"
     style="fill:#8c8c8c" />
  <g
     width="2.16"
     x="24.12"
     height="2.16"
     id="connector24terminal"
     style="fill:#8c8c8c"
     transform="translate(0,-7.5683594e-6)" />
  <polygon
     points="27.72,2.3472 26.28,1.6848 24.12,1.6848 22.68,2.3472 22.68,3.1248 27.72,3.1248 "
     id="polygon94"
     style="fill:#8c8c8c"
     transform="translate(0,-7.5683594e-6)" />
  <rect
     width="2.1600001"
     x="31.32"
     y="-7.5683593e-06"
     height="3.1248"
     id="connector23pin"
     style="fill:#8c8c8c" />
  <g
     width="2.16"
     x="31.32"
     height="2.16"
     id="connector23terminal"
     style="fill:#8c8c8c"
     transform="translate(0,-7.5683594e-6)" />
  <polygon
     points="34.92,2.3472 33.48,1.6848 31.32,1.6848 29.88,2.3472 29.88,3.1248 34.92,3.1248 "
     id="polygon98"
     style="fill:#8c8c8c"
     transform="translate(0,-7.5683594e-6)" />
  <rect
     width="2.1600001"
     x="38.52"
     y="-7.5683593e-06"
     height="3.1248"
     id="connector22pin"
     style="fill:#8c8c8c" />
  <g
     width="2.16"
     x="38.52"
     height="2.16"
     id="connector22terminal"
     style="fill:#8c8c8c"
     transform="translate(0,-7.5683594e-6)" />
  <polygon
     points="42.12,2.3472 40.68,1.6848 38.52,1.6848 37.08,2.3472 37.08,3.1248 42.12,3.1248 "
     id="polygon102"
     style="fill:#8c8c8c"
     transform="translate(0,-7.5683594e-6)" />
  <rect
     width="2.1600001"
     x="45.720001"
     y="-7.5683593e-06"
     height="3.1248"
     id="connector21pin"
     style="fill:#8c8c8c" />
  <g
     width="2.16"
     x="45.72"
     height="2.16"
     id="connector21terminal"
     style="fill:#8c8c8c"
     transform="translate(0,-7.5683594e-6)" />
  <polygon
     points="49.32,2.3472 47.88,1.6848 45.72,1.6848 44.28,2.3472 44.28,3.1248 49.32,3.1248 "
     id="polygon106"
     style="fill:#8c8c8c"
     transform="translate(0,-7.5683594e-6)" />
  <rect
     width="2.1600001"
     x="52.919998"
     y="-7.5683593e-06"
     height="3.1248"
     id="connector20pin"
     style="fill:#8c8c8c" />
  <g
     width="2.16"
     x="52.92"
     height="2.16"
     id="connector20terminal"
     style="fill:#8c8c8c"
     transform="translate(0,-7.5683594e-6)" />
  <polygon
     points="56.52,2.3472 55.08,1.6848 52.92,1.6848 51.48,2.3472 51.48,3.1248 56.52,3.1248 "
     id="polygon110"
     style="fill:#8c8c8c"
     transform="translate(0,-7.5683594e-6)" />
  <rect
     width="2.1600001"
     x="60.119999"
     y="-7.5683593e-06"
     height="3.1248"
     id="connector19pin"
     style="fill:#8c8c8c" />
  <g
     width="2.16"
     x="60.12"
     height="2.16"
     id="connector19terminal"
     style="fill:#8c8c8c"
     transform="translate(0,-7.5683594e-6)" />
  <polygon
     points="63.72,2.3472 62.28,1.6848 60.12,1.6848 58.68,2.3472 58.68,3.1248 63.72,3.1248 "
     id="polygon114"
     style="fill:#8c8c8c"
     transform="translate(0,-7.5683594e-6)" />
  <rect
     width="2.1600001"
     x="67.32"
     y="-7.5683593e-06"
     height="3.1248"
     id="connector18pin"
     style="fill:#8c8c8c" />
  <g
     width="2.16"
     x="67.32"
     height="2.16"
     id="connector18terminal"
     style="fill:#8c8c8c"
     transform="translate(0,-7.5683594e-6)" />
  <polygon
     points="70.92,2.3472 69.48,1.6848 67.32,1.6848 65.88,2.3472 65.88,3.1248 70.92,3.1248 "
     id="polygon118"
     style="fill:#8c8c8c"
     transform="translate(0,-7.5683594e-6)" />
  <rect
     width="2.1600001"
     x="74.519997"
     y="-7.5683593e-06"
     height="3.1248"
     id="connector17pin"
     style="fill:#8c8c8c" />
  <g
     width="2.16"
     x="74.52"
     height="2.16"
     id="connector17terminal"
     style="fill:#8c8c8c"
     transform="translate(0,-7.5683594e-6)" />
  <polygon
     points="78.12,2.3472 76.68,1.6848 74.52,1.6848 73.08,2.3472 73.08,3.1248 78.12,3.1248 "
     id="polygon122"
     style="fill:#8c8c8c"
     transform="translate(0,-7.5683594e-6)" />
  <rect
     width="2.1600001"
     x="81.720001"
     y="-7.5683593e-06"
     height="3.1248"
     id="connector16pin"
     style="fill:#8c8c8c" />
  <g
     width="2.16"
     x="81.72"
     height="2.16"
     id="connector16terminal"
     style="fill:#8c8c8c"
     transform="translate(0,-7.5683594e-6)" />
  <polygon
     points="85.32,2.3472 83.88,1.6848 81.72,1.6848 80.28,2.3472 80.28,3.1248 85.32,3.1248 "
     id="polygon126"
     style="fill:#8c8c8c"
     transform="translate(0,-7.5683594e-6)" />
  <rect
     width="2.1600001"
     x="88.919998"
     y="-7.5683593e-06"
     height="3.1248"
     id="connector15pin"
     style="fill:#8c8c8c" />
  <g
     width="2.16"
     x="88.92"
     height="2.16"
     id="connector15terminal"
     style="fill:#8c8c8c"
     transform="translate(0,-7.5683594e-6)" />
  <polygon
     points="92.52,2.3472 91.08,1.6848 88.92,1.6848 87.48,2.3472 87.48,3.1248 92.52,3.1248 "
     id="polygon130"
     style="fill:#8c8c8c"
     transform="translate(0,-7.5683594e-6)" />
  <rect
     width="2.1600001"
     x="9.7200003"
     y="20.635193"
     height="3.1248"
     id="connector1pin"
     style="fill:#8c8c8c" />
  <g
     width="2.16"
     x="9.72"
     y="21.6"
     height="2.16"
     id="connector1terminal"
     style="fill:#8c8c8c"
     transform="translate(0,-7.5683594e-6)" />
  <polygon
     points="8.28,21.4128 9.72,22.0752 11.88,22.0752 13.32,21.4128 13.32,20.6352 8.28,20.6352 "
     id="polygon134"
     style="fill:#8c8c8c"
     transform="translate(0,-7.5683594e-6)" />
  <rect
     width="2.1600001"
     x="16.92"
     y="20.635193"
     height="3.1248"
     id="connector2pin"
     style="fill:#8c8c8c" />
  <g
     width="2.16"
     x="16.92"
     y="21.6"
     height="2.16"
     id="connector2terminal"
     style="fill:#8c8c8c"
     transform="translate(0,-7.5683594e-6)" />
  <polygon
     points="15.48,21.4128 16.92,22.0752 19.08,22.0752 20.52,21.4128 20.52,20.6352 15.48,20.6352 "
     id="polygon138"
     style="fill:#8c8c8c"
     transform="translate(0,-7.5683594e-6)" />
  <rect
     width="2.1600001"
     x="24.120001"
     y="20.635193"
     height="3.1248"
     id="connector3pin"
     style="fill:#8c8c8c" />
  <g
     width="2.16"
     x="24.12"
     y="21.6"
     height="2.16"
     id="connector3terminal"
     style="fill:#8c8c8c"
     transform="translate(0,-7.5683594e-6)" />
  <polygon
     points="22.68,21.4128 24.12,22.0752 26.28,22.0752 27.72,21.4128 27.72,20.6352 22.68,20.6352 "
     id="polygon142"
     style="fill:#8c8c8c"
     transform="translate(0,-7.5683594e-6)" />
  <rect
     width="2.1600001"
     x="31.32"
     y="20.635193"
     height="3.1248"
     id="connector4pin"
     style="fill:#8c8c8c" />
  <g
     width="2.16"
     x="31.32"
     y="21.6"
     height="2.16"
     id="connector4terminal"
     style="fill:#8c8c8c"
     transform="translate(0,-7.5683594e-6)" />
  <polygon
     points="29.88,21.4128 31.32,22.0752 33.48,22.0752 34.92,21.4128 34.92,20.6352 29.88,20.6352 "
     id="polygon146"
     style="fill:#8c8c8c"
     transform="translate(0,-7.5683594e-6)" />
  <rect
     width="2.1600001"
     x="38.52"
     y="20.635193"
     height="3.1248"
     id="connector5pin"
     style="fill:#8c8c8c" />
  <g
     width="2.16"
     x="38.52"
     y="21.6"
     height="2.16"
     id="connector5terminal"
     style="fill:#8c8c8c"
     transform="translate(0,-7.5683594e-6)" />
  <polygon
     points="37.08,21.4128 38.52,22.0752 40.68,22.0752 42.12,21.4128 42.12,20.6352 37.08,20.6352 "
     id="polygon150"
     style="fill:#8c8c8c"
     transform="translate(0,-7.5683594e-6)" />
  <rect
     width="2.1600001"
     x="45.720001"
     y="20.635193"
     height="3.1248"
     id="connector6pin"
     style="fill:#8c8c8c" />
  <g
     width="2.16"
     x="45.72"
     y="21.6"
     height="2.16"
     id="connector6terminal"
     style="fill:#8c8c8c"
     transform="translate(0,-7.5683594e-6)" />
  <polygon
     points="44.28,21.4128 45.72,22.0752 47.88,22.0752 49.32,21.4128 49.32,20.6352 44.28,20.6352 "
     id="polygon154"
     style="fill:#8c8c8c"
     transform="translate(0,-7.5683594e-6)" />
  <rect
     width="2.1600001"
     x="52.919998"
     y="20.635193"
     height="3.1248"
     id="connector7pin"
     style="fill:#8c8c8c" />
  <g
     width="2.16"
     x="52.92"
     y="21.6"
     height="2.16"
     id="connector7terminal"
     style="fill:#8c8c8c"
     transform="translate(0,-7.5683594e-6)" />
  <polygon
     points="51.48,21.4128 52.92,22.0752 55.08,22.0752 56.52,21.4128 56.52,20.6352 51.48,20.6352 "
     id="polygon158"
     style="fill:#8c8c8c"
     transform="translate(0,-7.5683594e-6)" />
  <rect
     width="2.1600001"
     x="60.119999"
     y="20.635193"
     height="3.1248"
     id="connector8pin"
     style="fill:#8c8c8c" />
  <g
     width="2.16"
     x="60.12"
     y="21.6"
     height="2.16"
     id="connector8terminal"
     style="fill:#8c8c8c"
     transform="translate(0,-7.5683594e-6)" />
  <polygon
     points="58.68,21.4128 60.12,22.0752 62.28,22.0752 63.72,21.4128 63.72,20.6352 58.68,20.6352 "
     id="polygon162"
     style="fill:#8c8c8c"
     transform="translate(0,-7.5683594e-6)" />
  <rect
     width="2.1600001"
     x="67.32"
     y="20.635193"
     height="3.1248"
     id="connector9pin"
     style="fill:#8c8c8c" />
  <g
     width="2.16"
     x="67.32"
     y="21.6"
     height="2.16"
     id="connector9terminal"
     style="fill:#8c8c8c"
     transform="translate(0,-7.5683594e-6)" />
  <polygon
     points="65.88,21.4128 67.32,22.0752 69.48,22.0752 70.92,21.4128 70.92,20.6352 65.88,20.6352 "
     id="polygon166"
     style="fill:#8c8c8c"
     transform="translate(0,-7.5683594e-6)" />
  <rect
     width="2.1600001"
     x="74.519997"
     y="20.635193"
     height="3.1248"
     id="connector10pin"
     style="fill:#8c8c8c" />
  <g
     width="2.16"
     x="74.52"
     y="21.6"
     height="2.16"
     id="connector10terminal"
     style="fill:#8c8c8c"
     transform="translate(0,-7.5683594e-6)" />
  <polygon
     points="73.08,21.4128 74.52,22.0752 76.68,22.0752 78.12,21.4128 78.12,20.6352 73.08,20.6352 "
     id="polygon170"
     style="fill:#8c8c8c"
     transform="translate(0,-7.5683594e-6)" />
  <rect
     width="2.1600001"
     x="81.720001"
     y="20.635193"
     height="3.1248"
     id="connector11pin"
     style="fill:#8c8c8c" />
  <g
     width="2.16"
     x="81.72"
     y="21.6"
     height="2.16"
     id="connector11terminal"
     style="fill:#8c8c8c"
     transform="translate(0,-7.5683594e-6)" />
  <polygon
     points="80.28,21.4128 81.72,22.0752 83.88,22.0752 85.32,21.4128 85.32,20.6352 80.28,20.6352 "
     id="polygon174"
     style="fill:#8c8c8c"
     transform="translate(0,-7.5683594e-6)" />
  <rect
     width="2.1600001"
     x="88.919998"
     y="20.635193"
     height="3.1248"
     id="connector12pin"
     style="fill:#8c8c8c" />
  <g
     width="2.16"
     x="88.92"
     y="21.6"
     height="2.16"
     id="connector12terminal"
     style="fill:#8c8c8c"
     transform="translate(0,-7.5683594e-6)" />
  <polygon
     points="87.48,21.4128 88.92,22.0752 91.08,22.0752 92.52,21.4128 92.52,20.6352 87.48,20.6352 "
     id="polygon178"
     style="fill:#8c8c8c"
     transform="translate(0,-7.5683594e-6)" />
</svg>
